<svg id="Layer_1" data-name="Layer 1" xmlns="http://www.w3.org/2000/svg" viewBox="0 0 162.46 162.46"><defs><style>.cls-1{fill:#fff0a5;}.cls-2{fill:#b64926;}.cls-3{fill:#468966;}</style></defs><path class="cls-1" d="M396,224.77A81.23,81.23,0,1,0,477.23,306,81.23,81.23,0,0,0,396,224.77Zm0,156.89A75.66,75.66,0,1,1,471.66,306,75.67,75.67,0,0,1,396,381.66Z" transform="translate(-314.77 -224.77)"/><path class="cls-2" d="M396,230.34A75.66,75.66,0,1,0,471.66,306,75.67,75.67,0,0,0,396,230.34Zm44.65,116.58q-6.9,9.15-16.39,9.15-7.74,0-13.56-9t-5.83-27.55q0-4.11.2-7.83t.49-7.05L409,272.47H386.37q-5.87,61.08-9.64,72.69T364,356.76a10.81,10.81,0,0,1-7.24-3,10.22,10.22,0,0,1-3.43-8q0-4.5,7.1-12.57t7.88-14.74l5.88-45.91h-9.5a16.84,16.84,0,0,0-7.68,1.91,14.55,14.55,0,0,0-5.54,4.45l-4.2,6.27h-3.43q4.8-14.88,11.79-22.37t16.11-7.49h74.79v17.23H421.22q-1.17,11.75-1.81,23.5t-.64,23.59q0,8,3.72,13t9.3,5a12.24,12.24,0,0,0,7.2-2.79,10.13,10.13,0,0,0,4.26-7.29c.19-1.44.34-2.56.44-3.38s.14-1.32.14-1.52l4.38-.08C447.88,332.63,445.25,340.82,440.65,346.92Z" transform="translate(-314.77 -224.77)"/><path class="cls-3" d="M448.21,322.51c-.33,10.12-3,18.31-7.56,24.41s-10.06,9.15-16.39,9.15q-7.74,0-13.56-9t-5.83-27.55q0-4.11.2-7.83t.49-7.05L409,272.47H386.37q-5.87,61.08-9.64,72.69T364,356.76a10.81,10.81,0,0,1-7.24-3,10.22,10.22,0,0,1-3.43-8q0-4.5,7.1-12.57t7.88-14.74l5.88-45.91h-9.5a16.84,16.84,0,0,0-7.68,1.91,14.55,14.55,0,0,0-5.54,4.45l-4.2,6.27h-3.43q4.8-14.88,11.79-22.37t16.11-7.49h74.79v17.23H421.22q-1.17,11.75-1.81,23.5t-.64,23.59q0,8,3.72,13t9.3,5a12.24,12.24,0,0,0,7.2-2.79,10.13,10.13,0,0,0,4.26-7.29c.19-1.44.34-2.56.44-3.38s.14-1.32.14-1.52Z" transform="translate(-314.77 -224.77)"/></svg>